<svg width="46" height="46" viewBox="0 0 46 46" fill="none" xmlns="http://www.w3.org/2000/svg">
<g id="Media / Icon">
<path id="Vector" d="M32.5835 21.0834H18.036L24.361 14.7775C24.722 14.4166 24.9247 13.9271 24.9247 13.4167C24.9247 12.9063 24.722 12.4168 24.361 12.0559C24.0001 11.6949 23.5106 11.4922 23.0002 11.4922C22.4898 11.4922 22.0003 11.6949 21.6394 12.0559L12.056 21.6392C11.8815 21.8215 11.7448 22.0364 11.6535 22.2717C11.4618 22.7383 11.4618 23.2617 11.6535 23.7284C11.7448 23.9636 11.8815 24.1786 12.056 24.3609L21.6394 33.9442C21.8176 34.1238 22.0295 34.2664 22.2631 34.3637C22.4967 34.461 22.7472 34.5111 23.0002 34.5111C23.2532 34.5111 23.5038 34.461 23.7373 34.3637C23.9709 34.2664 24.1829 34.1238 24.361 33.9442C24.5407 33.766 24.6833 33.554 24.7806 33.3205C24.8779 33.0869 24.928 32.8364 24.928 32.5834C24.928 32.3303 24.8779 32.0798 24.7806 31.8463C24.6833 31.6127 24.5407 31.4007 24.361 31.2225L18.036 24.9167H32.5835C33.0919 24.9167 33.5794 24.7148 33.9388 24.3553C34.2983 23.9959 34.5002 23.5084 34.5002 23C34.5002 22.4917 34.2983 22.0042 33.9388 21.6447C33.5794 21.2853 33.0919 21.0834 32.5835 21.0834Z" fill="#11387C"/>
</g>
</svg>
