<svg width="10" height="10" viewBox="0 0 10 10" fill="none" xmlns="http://www.w3.org/2000/svg">
<g id="briefcase minimalis">
<path id="Vector" d="M8.63636 1.81818H7.27273V1.36364C7.27273 1.00198 7.12906 0.655131 6.87333 0.3994C6.6176 0.143668 6.27075 0 5.90909 0H4.09091C3.72925 0 3.3824 0.143668 3.12667 0.3994C2.87094 0.655131 2.72727 1.00198 2.72727 1.36364V1.81818H1.36364C1.00198 1.81818 0.655131 1.96185 0.3994 2.21758C0.143668 2.47331 0 2.82016 0 3.18182V8.63636C0 8.99802 0.143668 9.34487 0.3994 9.6006C0.655131 9.85633 1.00198 10 1.36364 10H8.63636C8.99802 10 9.34487 9.85633 9.6006 9.6006C9.85633 9.34487 10 8.99802 10 8.63636V3.18182C10 2.82016 9.85633 2.47331 9.6006 2.21758C9.34487 1.96185 8.99802 1.81818 8.63636 1.81818ZM3.63636 1.36364C3.63636 1.24308 3.68425 1.12747 3.7695 1.04222C3.85474 0.95698 3.97036 0.909091 4.09091 0.909091H5.90909C6.02964 0.909091 6.14526 0.95698 6.2305 1.04222C6.31575 1.12747 6.36364 1.24308 6.36364 1.36364V1.81818H3.63636V1.36364ZM0.909091 3.18182C0.909091 3.06127 0.95698 2.94565 1.04222 2.86041C1.12747 2.77516 1.24308 2.72727 1.36364 2.72727H8.63636C8.75692 2.72727 8.87253 2.77516 8.95778 2.86041C9.04302 2.94565 9.09091 3.06127 9.09091 3.18182V4.09091C9.09091 4.45257 8.94724 4.79941 8.69151 5.05515C8.43578 5.31088 8.08893 5.45455 7.72727 5.45455H2.27273C1.91107 5.45455 1.56422 5.31088 1.30849 5.05515C1.05276 4.79941 0.909091 4.45257 0.909091 4.09091V3.18182ZM8.63636 9.09091H1.36364C1.24308 9.09091 1.12747 9.04302 1.04222 8.95778C0.95698 8.87253 0.909091 8.75692 0.909091 8.63636V5.90909C1.30123 6.20654 1.78055 6.36631 2.27273 6.36364C8.18182 6.36364 8.27727 6.51364 9.09091 5.90909V8.63636C9.09091 8.75692 9.04302 8.87253 8.95778 8.95778C8.87253 9.04302 8.75692 9.09091 8.63636 9.09091Z" fill="#11387C"/>
<path id="Vector_2" d="M4.54549 4.99893H5.45458C5.57513 4.99893 5.69075 4.95105 5.77599 4.8658C5.86123 4.78056 5.90912 4.66494 5.90912 4.54439C5.90912 4.42384 5.86123 4.30822 5.77599 4.22298C5.69075 4.13773 5.57513 4.08984 5.45458 4.08984H4.54549C4.42493 4.08984 4.30932 4.13773 4.22408 4.22298C4.13883 4.30822 4.09094 4.42384 4.09094 4.54439C4.09094 4.66494 4.13883 4.78056 4.22408 4.8658C4.30932 4.95105 4.42493 4.99893 4.54549 4.99893Z" fill="#4B4B4B"/>
</g>
</svg>
