<svg width="25" height="26" viewBox="0 0 25 26" fill="none" xmlns="http://www.w3.org/2000/svg">
<g id="Media / Icon">
<path id="Vector" d="M19.7916 4.66536H17.7083V3.6237C17.7083 3.34743 17.5985 3.08248 17.4032 2.88713C17.2078 2.69178 16.9429 2.58203 16.6666 2.58203C16.3903 2.58203 16.1254 2.69178 15.93 2.88713C15.7347 3.08248 15.6249 3.34743 15.6249 3.6237V4.66536H9.37492V3.6237C9.37492 3.34743 9.26517 3.08248 9.06982 2.88713C8.87447 2.69178 8.60952 2.58203 8.33325 2.58203C8.05698 2.58203 7.79203 2.69178 7.59668 2.88713C7.40133 3.08248 7.29158 3.34743 7.29158 3.6237V4.66536H5.20825C4.37945 4.66536 3.58459 4.9946 2.99854 5.58066C2.41249 6.16671 2.08325 6.96156 2.08325 7.79036V20.2904C2.08325 21.1192 2.41249 21.914 2.99854 22.5001C3.58459 23.0861 4.37945 23.4154 5.20825 23.4154H19.7916C20.6204 23.4154 21.4152 23.0861 22.0013 22.5001C22.5873 21.914 22.9166 21.1192 22.9166 20.2904V7.79036C22.9166 6.96156 22.5873 6.16671 22.0013 5.58066C21.4152 4.9946 20.6204 4.66536 19.7916 4.66536ZM20.8333 20.2904C20.8333 20.5666 20.7235 20.8316 20.5282 21.0269C20.3328 21.2223 20.0679 21.332 19.7916 21.332H5.20825C4.93198 21.332 4.66703 21.2223 4.47168 21.0269C4.27633 20.8316 4.16659 20.5666 4.16659 20.2904V12.9987H20.8333V20.2904ZM20.8333 10.9154H4.16659V7.79036C4.16659 7.5141 4.27633 7.24915 4.47168 7.05379C4.66703 6.85844 4.93198 6.7487 5.20825 6.7487H7.29158V7.79036C7.29158 8.06663 7.40133 8.33158 7.59668 8.52693C7.79203 8.72228 8.05698 8.83203 8.33325 8.83203C8.60952 8.83203 8.87447 8.72228 9.06982 8.52693C9.26517 8.33158 9.37492 8.06663 9.37492 7.79036V6.7487H15.6249V7.79036C15.6249 8.06663 15.7347 8.33158 15.93 8.52693C16.1254 8.72228 16.3903 8.83203 16.6666 8.83203C16.9429 8.83203 17.2078 8.72228 17.4032 8.52693C17.5985 8.33158 17.7083 8.06663 17.7083 7.79036V6.7487H19.7916C20.0679 6.7487 20.3328 6.85844 20.5282 7.05379C20.7235 7.24915 20.8333 7.5141 20.8333 7.79036V10.9154Z" fill="#11387C"/>
</g>
</svg>
