<svg width="13" height="13" viewBox="0 0 13 13" fill="none" xmlns="http://www.w3.org/2000/svg">
<g id="8666706_copy_icon 1" clip-path="url(#clip0_408_41869)">
<path id="Vector" d="M10.3711 4.90625H5.70609C5.13356 4.90625 4.66943 5.37038 4.66943 5.94291V10.6079C4.66943 11.1804 5.13356 11.6445 5.70609 11.6445H10.3711C10.9436 11.6445 11.4077 11.1804 11.4077 10.6079V5.94291C11.4077 5.37038 10.9436 4.90625 10.3711 4.90625Z" stroke="black" stroke-width="1.03666" stroke-linecap="round" stroke-linejoin="round"/>
<path id="Vector_2" d="M2.596 8.01563H2.07768C1.80274 8.01563 1.53906 7.90641 1.34465 7.712C1.15023 7.51759 1.04102 7.25391 1.04102 6.97897V2.314C1.04102 2.03906 1.15023 1.77539 1.34465 1.58097C1.53906 1.38656 1.80274 1.27734 2.07768 1.27734H6.74264C7.01758 1.27734 7.28126 1.38656 7.47567 1.58097C7.67008 1.77539 7.7793 2.03906 7.7793 2.314V2.83233" stroke="black" stroke-width="1.03666" stroke-linecap="round" stroke-linejoin="round"/>
</g>
<defs>
<clipPath id="clip0_408_41869">
<rect width="12.4399" height="12.4399" fill="white" transform="translate(0.00439453 0.242188)"/>
</clipPath>
</defs>
</svg>
