<svg width="16" height="16" viewBox="0 0 16 16" fill="none" xmlns="http://www.w3.org/2000/svg">
<g id="3643729_bin_delete_garbage_rubbish_trash_icon 1" clip-path="url(#clip0_408_41829)">
<g id="Layer 17">
<path id="Vector" d="M12.0449 15.1069H4.56835C4.19656 15.1069 3.83999 14.9592 3.5771 14.6963C3.3142 14.4334 3.1665 14.0768 3.1665 13.705V4.82666C3.1665 4.70273 3.21574 4.58387 3.30337 4.49624C3.391 4.40861 3.50986 4.35938 3.63379 4.35938C3.75772 4.35938 3.87657 4.40861 3.9642 4.49624C4.05184 4.58387 4.10107 4.70273 4.10107 4.82666V13.705C4.10107 13.8289 4.1503 13.9478 4.23793 14.0354C4.32556 14.1231 4.44442 14.1723 4.56835 14.1723H12.0449C12.1688 14.1723 12.2877 14.1231 12.3753 14.0354C12.4629 13.9478 12.5121 13.8289 12.5121 13.705V4.82666C12.5121 4.70273 12.5614 4.58387 12.649 4.49624C12.7366 4.40861 12.8555 4.35938 12.9794 4.35938C13.1034 4.35938 13.2222 4.40861 13.3098 4.49624C13.3975 4.58387 13.4467 4.70273 13.4467 4.82666V13.705C13.4467 14.0768 13.299 14.4334 13.0361 14.6963C12.7732 14.9592 12.4167 15.1069 12.0449 15.1069Z" fill="#101820"/>
<path id="Vector_2" d="M13.914 3.8916H2.69922C2.57528 3.8916 2.45643 3.84236 2.3688 3.75473C2.28116 3.6671 2.23193 3.54824 2.23193 3.42431C2.23193 3.30038 2.28116 3.18153 2.3688 3.0939C2.45643 3.00626 2.57528 2.95703 2.69922 2.95703H13.914C14.0379 2.95703 14.1568 3.00626 14.2444 3.0939C14.332 3.18153 14.3813 3.30038 14.3813 3.42431C14.3813 3.54824 14.332 3.6671 14.2444 3.75473C14.1568 3.84236 14.0379 3.8916 13.914 3.8916Z" fill="#101820"/>
<path id="Vector_3" d="M10.1758 3.89354C10.0518 3.89354 9.93297 3.84431 9.84534 3.75667C9.7577 3.66904 9.70847 3.55019 9.70847 3.42625V2.02441H6.90478V3.42625C6.90478 3.55019 6.85555 3.66904 6.76792 3.75667C6.68028 3.84431 6.56143 3.89354 6.4375 3.89354C6.31357 3.89354 6.19471 3.84431 6.10708 3.75667C6.01945 3.66904 5.97021 3.55019 5.97021 3.42625V1.55713C5.97021 1.43319 6.01945 1.31434 6.10708 1.22671C6.19471 1.13908 6.31357 1.08984 6.4375 1.08984H10.1758C10.2997 1.08984 10.4185 1.13908 10.5062 1.22671C10.5938 1.31434 10.643 1.43319 10.643 1.55713V3.42625C10.643 3.55019 10.5938 3.66904 10.5062 3.75667C10.4185 3.84431 10.2997 3.89354 10.1758 3.89354Z" fill="#101820"/>
<path id="Vector_4" d="M8.30664 12.7734C8.18271 12.7734 8.06385 12.7242 7.97622 12.6365C7.88859 12.5489 7.83936 12.43 7.83936 12.3061V5.76416C7.83936 5.64023 7.88859 5.52137 7.97622 5.43374C8.06385 5.34611 8.18271 5.29688 8.30664 5.29688C8.43057 5.29688 8.54942 5.34611 8.63706 5.43374C8.72469 5.52137 8.77392 5.64023 8.77392 5.76416V12.3061C8.77392 12.43 8.72469 12.5489 8.63706 12.6365C8.54942 12.7242 8.43057 12.7734 8.30664 12.7734Z" fill="#101820"/>
<path id="Vector_5" d="M10.6428 11.8379C10.5189 11.8379 10.4 11.7886 10.3124 11.701C10.2248 11.6134 10.1755 11.4945 10.1755 11.3706V6.69775C10.1755 6.57382 10.2248 6.45497 10.3124 6.36733C10.4 6.2797 10.5189 6.23047 10.6428 6.23047C10.7668 6.23047 10.8856 6.2797 10.9732 6.36733C11.0609 6.45497 11.1101 6.57382 11.1101 6.69775V11.3706C11.1101 11.4945 11.0609 11.6134 10.9732 11.701C10.8856 11.7886 10.7668 11.8379 10.6428 11.8379Z" fill="#101820"/>
<path id="Vector_6" d="M5.97021 11.8379C5.84628 11.8379 5.72743 11.7886 5.63979 11.701C5.55216 11.6134 5.50293 11.4945 5.50293 11.3706V6.69775C5.50293 6.57382 5.55216 6.45497 5.63979 6.36733C5.72743 6.2797 5.84628 6.23047 5.97021 6.23047C6.09414 6.23047 6.213 6.2797 6.30063 6.36733C6.38826 6.45497 6.43749 6.57382 6.43749 6.69775V11.3706C6.43749 11.4945 6.38826 11.6134 6.30063 11.701C6.213 11.7886 6.09414 11.8379 5.97021 11.8379Z" fill="#101820"/>
</g>
</g>
<defs>
<clipPath id="clip0_408_41829">
<rect width="14.953" height="14.953" fill="white" transform="translate(0.830078 0.621094)"/>
</clipPath>
</defs>
</svg>
