<svg width="31" height="31" viewBox="0 0 31 31" fill="none" xmlns="http://www.w3.org/2000/svg">
<g id="Media / Icon">
<path id="Vector" d="M26.7504 21.5824L23.6246 18.4566C23.5045 18.3355 23.3616 18.2395 23.2042 18.1739C23.0468 18.1083 22.878 18.0745 22.7075 18.0745C22.537 18.0745 22.3682 18.1083 22.2108 18.1739C22.0534 18.2395 21.9105 18.3355 21.7904 18.4566L17.1663 23.0808C17.0465 23.2015 16.9518 23.3446 16.8875 23.502C16.8233 23.6594 16.7907 23.8279 16.7917 23.9979V27.1237C16.7917 27.4663 16.9278 27.7948 17.17 28.037C17.4122 28.2793 17.7408 28.4154 18.0833 28.4154H21.2092C21.3792 28.4163 21.5477 28.3838 21.705 28.3195C21.8624 28.2552 22.0056 28.1605 22.1262 28.0408L26.7504 23.4166C26.8715 23.2965 26.9676 23.1537 27.0332 22.9963C27.0987 22.8389 27.1325 22.67 27.1325 22.4995C27.1325 22.329 27.0987 22.1602 27.0332 22.0028C26.9676 21.8454 26.8715 21.7025 26.7504 21.5824ZM20.6667 25.832H19.375V24.5404L22.7075 21.2079L23.9992 22.4995L20.6667 25.832ZM12.9167 25.832H7.75C7.40743 25.832 7.07889 25.6959 6.83665 25.4537C6.59442 25.2115 6.45833 24.8829 6.45833 24.5404V6.45703C6.45833 6.11446 6.59442 5.78592 6.83665 5.54369C7.07889 5.30145 7.40743 5.16536 7.75 5.16536H14.2083V9.04036C14.2083 10.0681 14.6166 11.0537 15.3433 11.7804C16.07 12.5071 17.0556 12.9154 18.0833 12.9154H21.9583V14.207C21.9583 14.5496 22.0944 14.8781 22.3367 15.1204C22.5789 15.3626 22.9074 15.4987 23.25 15.4987C23.5926 15.4987 23.9211 15.3626 24.1633 15.1204C24.4056 14.8781 24.5417 14.5496 24.5417 14.207V11.6237C24.5417 11.6237 24.5417 11.6237 24.5417 11.5462C24.5282 11.4275 24.5022 11.3106 24.4642 11.1974V11.0812C24.4021 10.9484 24.3192 10.8263 24.2188 10.7195L16.4688 2.96953C16.362 2.86906 16.2399 2.78622 16.1071 2.72411C16.0685 2.71864 16.0294 2.71864 15.9908 2.72411L15.5775 2.58203H7.75C6.72229 2.58203 5.73666 2.99029 5.00996 3.71699C4.28326 4.4437 3.875 5.42932 3.875 6.45703V24.5404C3.875 25.5681 4.28326 26.5537 5.00996 27.2804C5.73666 28.0071 6.72229 28.4154 7.75 28.4154H12.9167C13.2592 28.4154 13.5878 28.2793 13.83 28.037C14.0722 27.7948 14.2083 27.4663 14.2083 27.1237C14.2083 26.7811 14.0722 26.4526 13.83 26.2104C13.5878 25.9681 13.2592 25.832 12.9167 25.832ZM16.7917 6.98661L20.1371 10.332H18.0833C17.7408 10.332 17.4122 10.1959 17.17 9.95371C16.9278 9.71148 16.7917 9.38294 16.7917 9.04036V6.98661ZM10.3333 18.082H18.0833C18.4259 18.082 18.7544 17.9459 18.9967 17.7037C19.2389 17.4615 19.375 17.1329 19.375 16.7904C19.375 16.4478 19.2389 16.1193 18.9967 15.877C18.7544 15.6348 18.4259 15.4987 18.0833 15.4987H10.3333C9.99076 15.4987 9.66222 15.6348 9.41999 15.877C9.17775 16.1193 9.04167 16.4478 9.04167 16.7904C9.04167 17.1329 9.17775 17.4615 9.41999 17.7037C9.66222 17.9459 9.99076 18.082 10.3333 18.082ZM10.3333 12.9154H11.625C11.9676 12.9154 12.2961 12.7793 12.5383 12.537C12.7806 12.2948 12.9167 11.9663 12.9167 11.6237C12.9167 11.2811 12.7806 10.9526 12.5383 10.7104C12.2961 10.4681 11.9676 10.332 11.625 10.332H10.3333C9.99076 10.332 9.66222 10.4681 9.41999 10.7104C9.17775 10.9526 9.04167 11.2811 9.04167 11.6237C9.04167 11.9663 9.17775 12.2948 9.41999 12.537C9.66222 12.7793 9.99076 12.9154 10.3333 12.9154ZM12.9167 20.6654H10.3333C9.99076 20.6654 9.66222 20.8014 9.41999 21.0437C9.17775 21.2859 9.04167 21.6145 9.04167 21.957C9.04167 22.2996 9.17775 22.6281 9.41999 22.8704C9.66222 23.1126 9.99076 23.2487 10.3333 23.2487H12.9167C13.2592 23.2487 13.5878 23.1126 13.83 22.8704C14.0722 22.6281 14.2083 22.2996 14.2083 21.957C14.2083 21.6145 14.0722 21.2859 13.83 21.0437C13.5878 20.8014 13.2592 20.6654 12.9167 20.6654Z" fill="#111827"/>
</g>
</svg>
