<svg width="10" height="10" viewBox="0 0 10 10" fill="none" xmlns="http://www.w3.org/2000/svg">
<g id="Group 1261152833">
<path id="Vector" d="M5 0C2.24281 0 0 2.24311 0 5.00016C0 7.75722 2.24281 10 5 10C7.75705 10 10 7.75722 10 5.00016C10 2.24311 7.75708 0 5 0ZM5 9.21131C2.67781 9.21131 0.788662 7.3222 0.788662 5.00014C0.788662 2.67781 2.67781 0.788662 5 0.788662C7.32219 0.788662 9.21134 2.67781 9.21134 5.00014C9.21134 7.3222 7.32219 9.21131 5 9.21131Z" fill="#11387C"/>
<path id="Vector_2" d="M4.20952 4.02126C4.20952 3.70493 4.67218 3.65092 5.07349 3.65092C5.45174 3.65092 5.96857 3.82819 6.40072 4.05223L6.48541 3.18036C6.26929 3.0568 5.76793 2.91017 5.25866 2.87953L5.38209 1.99219H4.55652L4.6801 2.87953C3.61546 2.97969 3.26819 3.59687 3.26819 4.11385C3.26819 5.41768 5.69828 5.14022 5.69828 5.94228C5.69828 6.24343 5.41306 6.35119 4.91142 6.35119C4.23262 6.35119 3.72322 6.11228 3.4611 5.86519L3.3298 6.84512C3.57692 6.99175 4.07812 7.12288 4.6801 7.15385L4.55652 8.01025H5.38209L5.25866 7.14598C6.50851 7.03789 6.73222 6.37429 6.73222 5.93471C6.73225 4.38403 4.20952 4.76958 4.20952 4.02126Z" fill="#11387C"/>
</g>
</svg>
