<svg width="33" height="32" viewBox="0 0 33 32" fill="none" xmlns="http://www.w3.org/2000/svg">
<g id="Logo">
<g id="Logo_2">
<path id="Vector" d="M16.5 13.8164V18.4637H22.9582C22.6746 19.9582 21.8236 21.2237 20.5472 22.0746L24.4417 25.0965C26.7108 23.002 28.0199 19.9256 28.0199 16.2711C28.0199 15.4202 27.9436 14.6019 27.8017 13.8165L16.5 13.8164Z" fill="#4285F4"/>
<path id="Vector_2" d="M9.77461 18.2852L8.89625 18.9575L5.78711 21.3793C7.76165 25.2956 11.8086 28.0011 16.4995 28.0011C19.7394 28.0011 22.4557 26.932 24.4412 25.0994L20.5467 22.0775C19.4776 22.7975 18.114 23.2339 16.4995 23.2339C13.3795 23.2339 10.7287 21.1285 9.77952 18.2921L9.77461 18.2852Z" fill="#34A853"/>
<path id="Vector_3" d="M5.78718 10.6211C4.96904 12.2356 4.5 14.0574 4.5 15.9992C4.5 17.941 4.96904 19.7628 5.78718 21.3773C5.78718 21.3882 9.77997 18.2791 9.77997 18.2791C9.53998 17.5591 9.39812 16.7955 9.39812 15.9991C9.39812 15.2026 9.53998 14.439 9.77997 13.719L5.78718 10.6211Z" fill="#FBBC05"/>
<path id="Vector_4" d="M16.4997 8.77818C18.267 8.77818 19.8379 9.38907 21.0925 10.5673L24.5288 7.13095C22.4452 5.18917 19.7398 4 16.4997 4C11.8089 4 7.76165 6.69454 5.78711 10.6218L9.77978 13.72C10.7288 10.8836 13.3798 8.77818 16.4997 8.77818Z" fill="#EA4335"/>
</g>
</g>
</svg>
