<svg width="100" height="28" viewBox="0 0 100 28" fill="none" xmlns="http://www.w3.org/2000/svg">
<g id="Group">
<path id="Vector" d="M18.6143 0C20.1717 0 21.4344 1.26353 21.4344 2.82188V21.7651H17.1767V7.6492L11.054 17.7542H10.5554L4.43268 7.67836V21.7651H0.142578V2.82188C0.142578 1.26353 1.40531 0 2.9627 0H2.96594C3.95023 0 4.86654 0.515131 5.37811 1.35748L10.8014 10.2929L16.1924 1.36396C16.704 0.518368 17.6203 0 18.6078 0H18.6143Z" fill="#12367F"/>
<path id="Vector_2" d="M36.4741 8.05369V6.21995H40.4825V21.7678H36.4741V19.9341C35.2729 21.4471 33.5828 22.2052 31.4102 22.2052C29.2376 22.2052 27.5572 21.4179 26.0646 19.8434C24.5946 18.2462 23.8596 16.299 23.8596 13.9988C23.8596 11.6985 24.5946 9.78051 26.0646 8.18328C27.5572 6.58605 29.338 5.78906 31.4102 5.78906C33.586 5.78906 35.2729 6.54718 36.4741 8.06018V8.05369ZM29.079 17.1641C29.8884 17.974 30.9116 18.3757 32.1549 18.3757C33.3982 18.3757 34.4246 17.9708 35.2308 17.1641C36.0597 16.3347 36.4741 15.2785 36.4741 13.9923C36.4741 12.7061 36.0597 11.6596 35.2308 10.8529C34.4214 10.0235 33.3982 9.60881 32.1549 9.60881C30.9116 9.60881 29.8852 10.0235 29.079 10.8529C28.2695 11.6628 27.868 12.7093 27.868 13.9923C27.868 15.2752 28.2728 16.3347 29.079 17.1641Z" fill="#12367F"/>
<path id="Vector_3" d="M50.4645 6.21827V10.0736H46.9515V16.5403C46.9515 17.0814 47.0875 17.4734 47.3563 17.7228C47.625 17.9723 48.02 18.1116 48.538 18.144C49.0561 18.1764 49.6972 18.1699 50.4645 18.1278V21.7661C47.7513 22.0772 45.8183 21.8212 44.6689 21.0048C43.5194 20.1851 42.9431 18.698 42.9431 16.5436V3.07889L46.9515 1.86719V6.2215H50.4645V6.21827Z" fill="#12367F"/>
<path id="Vector_4" d="M60.0972 22.202C57.7563 22.202 55.7974 21.4147 54.2238 19.8401C52.6697 18.2656 51.8926 16.3152 51.8926 13.9955C51.8926 11.6758 52.6697 9.72544 54.2238 8.15089C55.7974 6.57634 57.7563 5.78906 60.0972 5.78906C61.6093 5.78906 62.9886 6.15192 64.2319 6.87764C65.4752 7.60335 66.4174 8.57855 67.0585 9.79996L63.6102 11.8216C63.2994 11.1801 62.8267 10.6715 62.1953 10.2989C61.5639 9.9263 60.8548 9.7384 60.068 9.7384C58.8668 9.7384 57.8728 10.1369 57.086 10.9371C56.2993 11.7341 55.9042 12.7579 55.9042 13.9988C55.9042 15.2396 56.296 16.218 57.086 17.0474C57.8728 17.8347 58.8668 18.23 60.068 18.23C60.8775 18.23 61.5963 18.0485 62.2277 17.6857C62.8591 17.3228 63.3318 16.8206 63.6426 16.1792L67.1233 18.1684C66.4401 19.4125 65.472 20.3974 64.2189 21.1231C62.9659 21.8488 61.5931 22.2117 60.1004 22.2117L60.0972 22.202Z" fill="#12367F"/>
<path id="Vector_5" d="M77.251 5.78375C78.9703 5.78375 80.369 6.35395 81.4472 7.49437C82.5675 8.65422 83.1244 10.232 83.1244 12.2213V21.769H79.116V12.7202C79.116 11.7061 78.8408 10.9156 78.2936 10.3584C77.7432 9.79787 76.992 9.51925 76.0401 9.51925C74.9846 9.51925 74.1492 9.84647 73.5373 10.4977C72.9253 11.1521 72.621 12.1111 72.621 13.3746V21.7722H68.6125V0.00390625H72.621V7.96413C73.5729 6.5127 75.1173 5.78698 77.251 5.78698V5.78375Z" fill="#12367F"/>
<path id="Vector_6" d="M92.2615 16.6672L95.7097 6.21875H99.9998L94.3434 21.7666C93.5339 24.0053 92.4622 25.6285 91.1282 26.6328C89.791 27.6372 88.13 28.0907 86.1387 27.9871V24.2548C87.1943 24.2742 88.0458 24.0475 88.6869 23.5712C89.328 23.0949 89.8363 22.3271 90.2087 21.2709L83.8367 6.22198H88.2174L92.2582 16.6704L92.2615 16.6672Z" fill="#12367F"/>
</g>
</svg>
