<svg width="28" height="23" viewBox="0 0 28 23" fill="none" xmlns="http://www.w3.org/2000/svg">
<g id="Group">
<g id="Group_2">
<g id="Group_3">
<path id="Vector" d="M8.16568 10.0823V4.08862C8.16568 2.75058 7.52135 1.55832 6.52734 0.816406L13.6991 6.04872L8.16243 10.0855L8.16568 10.0823Z" fill="#12367F"/>
<path id="Vector_2" d="M20.8741 21.3941L13.7024 16.1618L19.2358 12.125V18.1187C19.2358 19.4599 19.8801 20.6489 20.8741 21.3941Z" fill="#12367F"/>
</g>
<path id="Vector_3" d="M8.16899 4.08674V10.0836L6.76702 11.1009L5.63379 11.9303C5.63379 11.9303 5.61112 11.9465 5.59817 11.953L1.67718 14.817C0.582803 15.6172 1.14809e-10 16.8581 1.14809e-10 18.1184V4.08998C1.14809e-10 4.03167 -6.71902e-06 3.97011 0.00323109 3.91503C0.00323109 3.88587 0.00647206 3.85672 0.00647206 3.82756C0.00970987 3.7822 0.0129473 3.73037 0.0161851 3.68825C0.0194229 3.68177 0.0194261 3.67205 0.0194261 3.66557C0.0259017 3.60077 0.0356108 3.53273 0.0453242 3.46793C0.0550376 3.4161 0.0615188 3.35778 0.0712322 3.30594C0.0712322 3.30594 0.0712255 3.30271 0.0744633 3.30271C0.0809389 3.26059 0.0906579 3.21523 0.100371 3.17635C0.103609 3.16015 0.103609 3.15043 0.110084 3.13748C0.11656 3.10508 0.123038 3.07268 0.132751 3.03704C0.145703 2.9852 0.161887 2.92689 0.178076 2.87505C0.191027 2.82969 0.210452 2.77786 0.226641 2.7325C0.288159 2.55431 0.362633 2.38259 0.453291 2.21088C0.469481 2.17848 0.485671 2.14285 0.505098 2.10722C0.563378 2.0003 0.624899 1.90311 0.689655 1.80267C0.725271 1.75408 0.764124 1.699 0.79974 1.6504C0.838593 1.59532 0.883918 1.54349 0.926009 1.49165C0.961625 1.44954 1.00048 1.40417 1.03609 1.3653C1.04257 1.35558 1.05229 1.34586 1.062 1.33614C1.0879 1.30698 1.11704 1.27458 1.14942 1.24542C1.18503 1.20655 1.22389 1.16767 1.2595 1.13203C1.26922 1.12555 1.2757 1.11583 1.28541 1.10935C1.3275 1.07047 1.36959 1.02836 1.41168 0.992719C1.43758 0.970041 1.46349 0.950598 1.49263 0.927919C1.57681 0.863123 1.661 0.795085 1.75166 0.733528C1.79051 0.70437 1.83583 0.678458 1.87793 0.6493C1.92326 0.620141 1.96858 0.59422 2.01715 0.565061C2.04305 0.545622 2.06572 0.532665 2.09809 0.516466C2.13371 0.500267 2.16609 0.480824 2.20495 0.461385C2.23409 0.448425 2.26323 0.432225 2.29561 0.419266C2.36036 0.386867 2.42835 0.357716 2.49635 0.325318C2.56434 0.29292 2.63234 0.270241 2.70033 0.244323C2.76833 0.218404 2.83956 0.195718 2.91079 0.176279C2.91726 0.1698 2.92698 0.1698 2.9367 0.16656C3.00469 0.147121 3.07916 0.127688 3.14715 0.111489C3.22486 0.0952899 3.30257 0.0790861 3.38027 0.0661268C3.43856 0.0564074 3.50007 0.0466923 3.55835 0.0402126C3.58425 0.0369728 3.6134 0.0337334 3.64254 0.0304936C3.71053 0.0207741 3.78176 0.0175284 3.84652 0.0142886C3.92747 0.00780894 4.00517 0.0078125 4.08287 0.0078125C4.13792 0.0078125 4.19944 0.00781566 4.25772 0.0110555C4.28686 0.0110555 4.316 0.0142886 4.34838 0.0142886C4.39047 0.0175284 4.43256 0.0207678 4.47142 0.0240076C4.48437 0.0240076 4.49732 0.0272538 4.51027 0.0304936C4.57502 0.0369732 4.63978 0.0434552 4.70454 0.0531747C4.75958 0.0628941 4.81785 0.0693726 4.86966 0.0823318C4.91175 0.0888114 4.95709 0.0985265 4.99594 0.108246C5.00889 0.108246 5.02184 0.111485 5.03155 0.117965C5.0704 0.124445 5.10927 0.13417 5.14164 0.143889C5.25821 0.173047 5.36829 0.208681 5.47514 0.250799C5.52371 0.266998 5.57875 0.286441 5.62407 0.30588C5.66293 0.322079 5.70502 0.338279 5.74387 0.357718C5.80539 0.383637 5.87338 0.412795 5.9349 0.448433L6.06441 0.516466C6.22307 0.607181 6.37848 0.70437 6.52419 0.814523C7.51819 1.55968 8.16252 2.7487 8.16252 4.08998L8.16899 4.08674Z" fill="url(#paint0_linear_624_211)"/>
<path id="Vector_4" d="M27.4015 4.08674C27.4015 5.34703 26.8187 6.58788 25.7243 7.38811L20.6345 11.1009L19.2325 12.1247L13.7024 16.1615L6.52737 21.3906L6.48851 21.4165C6.35252 21.5202 6.21006 21.6077 6.0676 21.6854C6.0255 21.7113 5.98018 21.734 5.93809 21.7599C5.90571 21.7729 5.87656 21.7891 5.84095 21.8053C5.79562 21.828 5.74705 21.8474 5.70172 21.8668C5.67906 21.8766 5.65316 21.8863 5.62402 21.8992C5.57869 21.9187 5.52365 21.9381 5.47508 21.9543C5.365 21.9932 5.2549 22.0321 5.14482 22.0612C5.10273 22.0742 5.0574 22.0839 5.01855 22.0904C4.96674 22.1034 4.91494 22.1163 4.86313 22.1228C4.81133 22.1358 4.75629 22.1422 4.70448 22.152C4.63972 22.1617 4.57497 22.1682 4.51021 22.1746C4.49726 22.1779 4.48755 22.1779 4.47136 22.1779C4.4325 22.1843 4.39041 22.1876 4.34832 22.1908C4.31918 22.1908 4.29004 22.1941 4.25766 22.1941C4.19938 22.1973 4.1411 22.1973 4.08606 22.1973H4.08282C4.00511 22.1973 3.92741 22.1973 3.84646 22.1908C3.78171 22.1876 3.71047 22.1811 3.64248 22.1746C3.61658 22.1714 3.58743 22.1682 3.55829 22.1649C3.50001 22.1552 3.4385 22.1487 3.38022 22.139C3.37374 22.139 3.36403 22.1358 3.35755 22.1325C3.28632 22.1228 3.21832 22.1066 3.15033 22.0904C3.08233 22.0774 3.00786 22.058 2.93987 22.0353C2.93016 22.0353 2.92369 22.0321 2.91397 22.0288C2.8395 22.0094 2.77151 21.9867 2.70352 21.9608C2.63552 21.9381 2.56429 21.9122 2.49953 21.8798C2.43154 21.8539 2.36355 21.8215 2.29879 21.7859C2.26965 21.7729 2.24051 21.7599 2.20813 21.7405C2.17252 21.7243 2.14013 21.7049 2.10128 21.6854C2.07214 21.6725 2.043 21.653 2.01062 21.6368C1.98148 21.6206 1.95234 21.6044 1.91996 21.585L1.80016 21.504C1.76131 21.4781 1.71922 21.4522 1.68037 21.4198C1.59942 21.3647 1.52495 21.3031 1.45048 21.2383C1.41162 21.2092 1.37278 21.1768 1.33716 21.1411C1.29183 21.1023 1.24973 21.0569 1.20764 21.018C1.19469 21.0083 1.18498 20.9953 1.17527 20.9856C1.13642 20.95 1.10079 20.9079 1.06518 20.869C1.01661 20.8172 0.964809 20.7588 0.91948 20.7038C0.877388 20.6487 0.82882 20.5904 0.786728 20.532C0.786728 20.5288 0.786732 20.5256 0.780256 20.5223C0.679884 20.3863 0.592458 20.2469 0.511512 20.1044C0.488848 20.0623 0.466186 20.0137 0.443521 19.9716C0.411143 19.91 0.382003 19.8452 0.352863 19.7804C0.333436 19.7448 0.320487 19.7059 0.304298 19.667C0.239542 19.5083 0.181258 19.3463 0.139166 19.181C0.129453 19.1454 0.119744 19.1065 0.113268 19.0709C0.106792 19.0579 0.103555 19.0482 0.103555 19.0353C0.0938416 18.9931 0.0841226 18.9478 0.077647 18.9089C0.077647 18.9089 0.0765646 18.9067 0.0744061 18.9024C0.0646926 18.8506 0.0582213 18.7923 0.0485079 18.7404C0.0387945 18.6756 0.0290854 18.6076 0.0226098 18.5428C0.0226098 18.5331 0.0193688 18.5266 0.0193688 18.5201L0.00965577 18.3808C0.00965577 18.3516 0.0064148 18.3257 0.0064148 18.2966C0.00317699 18.2383 0.00317383 18.1767 0.00317383 18.1184C0.00317383 16.8581 0.585987 15.6172 1.68037 14.817L5.60135 11.953C5.60135 11.953 5.62402 11.94 5.63697 11.9303L6.77021 11.1009L8.17217 10.0836L13.7056 6.04683L20.8773 0.814523L20.9162 0.785366C21.0522 0.684932 21.1914 0.597461 21.3371 0.516466L21.4666 0.448433C21.5314 0.416034 21.5961 0.386876 21.6577 0.357718C21.6965 0.338279 21.7386 0.322079 21.7774 0.30588C21.8228 0.286441 21.8778 0.266998 21.9264 0.250799C22.0365 0.211921 22.1498 0.173047 22.2599 0.143889C22.2923 0.13417 22.3343 0.124445 22.37 0.117965C22.3797 0.111485 22.3926 0.108246 22.4056 0.108246C22.4444 0.0985265 22.4898 0.0888114 22.5319 0.0823318C22.5869 0.0693726 22.6419 0.0628941 22.697 0.0531747C22.7617 0.0434552 22.8265 0.0369732 22.8913 0.0304936C22.9042 0.0272538 22.9172 0.0240076 22.9301 0.0240076C22.969 0.0207678 23.0111 0.0175284 23.0532 0.0142886C23.0823 0.0142886 23.1114 0.0110555 23.1438 0.0110555C23.2021 0.00781566 23.2636 0.0078125 23.3187 0.0078125C23.3964 0.0078125 23.4741 0.00780894 23.555 0.0142886C23.6198 0.0175284 23.691 0.0207741 23.759 0.0304936C23.7881 0.0337334 23.814 0.0369728 23.8432 0.0402126C23.9015 0.0466923 23.963 0.0564074 24.0213 0.0661268C24.0601 0.0726064 24.1022 0.0790884 24.1378 0.0888079C24.2188 0.101767 24.2932 0.121207 24.3677 0.140646C24.4066 0.150366 24.4454 0.160084 24.4843 0.169803C24.5587 0.192482 24.6332 0.218397 24.7077 0.247556C24.7757 0.270234 24.8469 0.296153 24.9117 0.328551C25.0056 0.367429 25.0962 0.409551 25.1869 0.454909C25.2322 0.480827 25.2808 0.503503 25.3261 0.532661C25.3455 0.54238 25.365 0.552102 25.3811 0.565061C25.4394 0.597459 25.4977 0.633093 25.556 0.671971C25.6045 0.704369 25.6564 0.736769 25.7017 0.775647C25.7923 0.837204 25.8733 0.905245 25.9575 0.973281C26.0093 1.01864 26.0643 1.06724 26.1161 1.11583C26.1258 1.12231 26.1355 1.12879 26.142 1.1385C26.1776 1.17414 26.2165 1.21302 26.2553 1.2519C26.2812 1.27782 26.3104 1.31022 26.3395 1.34261C26.3492 1.35233 26.359 1.36205 26.3654 1.37177C26.4043 1.41065 26.4399 1.45601 26.4755 1.49813C26.5176 1.54997 26.5629 1.6018 26.6018 1.65688C26.6083 1.6666 26.618 1.67632 26.6245 1.68603C26.6536 1.72815 26.6795 1.77027 26.7119 1.80915C26.7766 1.91282 26.8414 2.01002 26.8964 2.11369C26.9159 2.14609 26.932 2.18173 26.9482 2.21737C27.0389 2.38584 27.1134 2.56078 27.1781 2.73897C27.1911 2.78433 27.2105 2.83617 27.2235 2.88153C27.2396 2.93336 27.2558 2.99168 27.2688 3.04352C27.2785 3.07592 27.285 3.10831 27.2947 3.14395C27.2979 3.15691 27.3012 3.16663 27.3012 3.18283C27.3109 3.22171 27.3206 3.26707 27.3271 3.30919C27.3303 3.30919 27.3303 3.31243 27.3303 3.31243C27.34 3.36427 27.3465 3.42258 27.3562 3.47442C27.3659 3.53922 27.3756 3.60725 27.3821 3.67204C27.3821 3.67852 27.3853 3.68824 27.3853 3.69472C27.3886 3.73684 27.3918 3.78868 27.3951 3.83403C27.3951 3.85995 27.3983 3.88912 27.3983 3.92152C27.4015 3.97659 27.4015 4.03814 27.4015 4.09646V4.08674Z" fill="#00CFFF"/>
<path id="Vector_5" d="M27.4048 4.08718V18.1156C27.4048 18.1739 27.4048 18.2355 27.3983 18.2938C27.3983 18.3229 27.3983 18.3489 27.3951 18.3748C27.3951 18.4234 27.3886 18.4687 27.3854 18.5141C27.3854 18.5206 27.3854 18.527 27.3854 18.5335C27.3789 18.6016 27.3692 18.6663 27.3594 18.7344C27.3497 18.7895 27.3433 18.8445 27.3303 18.8964V18.9029C27.3238 18.9417 27.3141 18.9839 27.3044 19.026C27.3044 19.0389 27.2979 19.0519 27.2947 19.0616C27.285 19.0972 27.2785 19.1361 27.2656 19.1718C27.2202 19.337 27.1684 19.5022 27.1004 19.661C27.0842 19.6999 27.068 19.7355 27.0519 19.7744C27.0227 19.8392 26.9936 19.904 26.9612 19.9655C26.9385 20.0109 26.9159 20.053 26.89 20.0984C26.809 20.2474 26.7151 20.3899 26.6148 20.526C26.5727 20.5843 26.5273 20.6426 26.482 20.6977C26.4334 20.7528 26.3881 20.8111 26.3363 20.8629C26.3007 20.9018 26.2651 20.9407 26.2262 20.9763C26.2165 20.9893 26.2068 20.999 26.1938 21.0087C26.1517 21.0509 26.1097 21.0897 26.0643 21.1319C26.0158 21.1772 25.9672 21.2193 25.9154 21.2614C25.8085 21.3489 25.6985 21.4332 25.5851 21.5077C25.556 21.5271 25.5268 21.5466 25.4945 21.566C25.4589 21.5919 25.4232 21.6113 25.3844 21.6308C25.3649 21.6437 25.3423 21.6567 25.3229 21.6697C25.2743 21.6956 25.229 21.7215 25.1804 21.7442C25.0897 21.7928 25.0023 21.8349 24.9084 21.8738C24.7692 21.9321 24.6235 21.9839 24.4778 22.026C24.4389 22.039 24.4033 22.0487 24.3645 22.0584C24.29 22.0779 24.2123 22.0973 24.1378 22.1135C24.099 22.12 24.0601 22.1265 24.0213 22.133C23.963 22.1427 23.9047 22.1524 23.8432 22.1589C23.8141 22.1654 23.7881 22.1686 23.759 22.1686C23.691 22.1783 23.6198 22.1816 23.5518 22.1848C23.4741 22.1913 23.3964 22.1913 23.3187 22.1913C23.2604 22.1913 23.2021 22.1913 23.1438 22.188C23.1147 22.188 23.0855 22.1848 23.0532 22.1816C23.0111 22.1816 22.969 22.1751 22.9301 22.1718C22.9172 22.1718 22.9042 22.1718 22.8913 22.1686C22.8265 22.1621 22.7617 22.1556 22.697 22.1427C22.642 22.133 22.5837 22.1265 22.5319 22.1135C22.4898 22.107 22.4477 22.0973 22.4056 22.0876C22.3927 22.0876 22.3797 22.0811 22.37 22.0779C22.3344 22.0714 22.2988 22.0617 22.2599 22.0487C22.179 22.0293 22.098 22.0034 22.0203 21.9742C21.9393 21.9483 21.8584 21.9191 21.7775 21.8835C21.7483 21.8705 21.7192 21.8576 21.6868 21.8446C21.6512 21.8316 21.6156 21.8122 21.5767 21.796C21.5411 21.7798 21.5055 21.7636 21.4699 21.7442C21.3792 21.6988 21.2886 21.6502 21.2044 21.5984C21.091 21.5304 20.981 21.4558 20.8773 21.3781C19.8833 20.6329 19.239 19.4439 19.239 18.1026V12.109L20.6378 11.0884L25.7276 7.37559C26.822 6.57536 27.4048 5.33127 27.4048 4.07422V4.08718Z" fill="#1974F9"/>
</g>
<path id="Vector_6" d="M8.16911 10.0798L3.36097 22.1351C3.28974 22.1254 3.22174 22.1092 3.15374 22.093C3.08575 22.0801 3.01128 22.0606 2.94329 22.038C2.93358 22.038 2.92709 22.0347 2.91738 22.0315C2.84291 22.012 2.77492 21.9894 2.70692 21.9634C2.63893 21.9408 2.5677 21.9148 2.50294 21.8824C2.43495 21.8565 2.36695 21.8241 2.3022 21.7885C2.27306 21.7755 2.24392 21.7626 2.21154 21.7431C2.17592 21.7269 2.14355 21.7075 2.1047 21.6881C2.07556 21.6751 2.04642 21.6557 2.01404 21.6395C1.9849 21.6233 1.95576 21.6071 1.92338 21.5876L1.80358 21.5066C1.76473 21.4807 1.72263 21.4548 1.68378 21.4224C1.60283 21.3673 1.52836 21.3058 1.45389 21.241C1.41504 21.2118 1.37618 21.1794 1.34057 21.1438C1.29524 21.1049 1.25315 21.0595 1.21106 21.0207C1.19811 21.0109 1.18839 20.998 1.17868 20.9883C1.13982 20.9526 1.10421 20.9105 1.06859 20.8716C1.02003 20.8198 0.968227 20.7615 0.922898 20.7064C0.880806 20.6513 0.832238 20.593 0.790146 20.5347C0.790146 20.5314 0.79014 20.5282 0.783664 20.525C0.683292 20.3889 0.595876 20.2496 0.51493 20.107C0.492266 20.0649 0.469604 20.0163 0.446939 19.9742C0.414561 19.9126 0.385421 19.8478 0.356281 19.783C0.336854 19.7474 0.323895 19.7085 0.307706 19.6697C0.24295 19.5109 0.184676 19.3489 0.142584 19.1837C0.132871 19.148 0.123152 19.1092 0.116676 19.0735C0.110201 19.0606 0.106963 19.0508 0.106963 19.0379C0.0972497 18.9958 0.0875406 18.9504 0.081065 18.9115C0.081065 18.9115 0.0799826 18.9094 0.077824 18.9051C0.0681106 18.8532 0.0616393 18.7949 0.0519259 18.7431C0.0422125 18.6783 0.0324935 18.6102 0.0260179 18.5454C0.0260179 18.5357 0.0227868 18.5292 0.0227868 18.5228L0.0130639 18.3834C0.0130639 18.3543 0.00983277 18.3284 0.00983277 18.2992C0.00659496 18.2409 0.0065918 18.1793 0.0065918 18.121V9.0625C0.0065918 11.9492 3.26383 13.6242 5.60477 11.9557C5.61772 11.9492 5.62743 11.9427 5.64038 11.933L8.17559 10.0863L8.16911 10.0798Z" fill="#00CFFF"/>
</g>
<defs>
<linearGradient id="paint0_linear_624_211" x1="-1.93621" y1="53.3773" x2="4.0578" y2="7.21411" gradientUnits="userSpaceOnUse">
<stop offset="0.7" stop-color="#12367F"/>
<stop offset="1" stop-color="#00CFFF"/>
</linearGradient>
</defs>
</svg>
