<svg width="19" height="19" viewBox="0 0 19 19" fill="none" xmlns="http://www.w3.org/2000/svg">
<g id="Media / Icon">
<path id="Vector" d="M11.6533 6.95745L8.25701 10.3616L6.95075 9.05536C6.87978 8.97249 6.79245 8.90518 6.69423 8.85767C6.59601 8.81015 6.48903 8.78344 6.38001 8.77923C6.27098 8.77502 6.16226 8.79339 6.06067 8.83319C5.95908 8.87299 5.86681 8.93336 5.78966 9.01052C5.71251 9.08767 5.65213 9.17994 5.61233 9.28153C5.57253 9.38312 5.55416 9.49184 5.55837 9.60087C5.56258 9.70989 5.58929 9.81687 5.63681 9.91509C5.68432 10.0133 5.75163 10.1006 5.83451 10.1716L7.69492 12.0399C7.7689 12.1133 7.85662 12.1714 7.95308 12.2108C8.04953 12.2502 8.15282 12.2701 8.25701 12.2695C8.46469 12.2687 8.66372 12.1862 8.81117 12.0399L12.7695 8.08161C12.8437 8.00802 12.9026 7.92046 12.9428 7.82399C12.983 7.72752 13.0037 7.62404 13.0037 7.51953C13.0037 7.41502 12.983 7.31155 12.9428 7.21507C12.9026 7.1186 12.8437 7.03104 12.7695 6.95745C12.6212 6.81 12.4205 6.72724 12.2114 6.72724C12.0022 6.72724 11.8016 6.81 11.6533 6.95745ZM9.49992 1.58203C7.93415 1.58203 6.40355 2.04634 5.10166 2.91623C3.79977 3.78612 2.78507 5.02254 2.18588 6.46912C1.58668 7.9157 1.42991 9.50748 1.73537 11.0432C2.04084 12.5788 2.79483 13.9895 3.90199 15.0966C5.00916 16.2038 6.41977 16.9578 7.95546 17.2632C9.49114 17.5687 11.0829 17.4119 12.5295 16.8127C13.9761 16.2136 15.2125 15.1989 16.0824 13.897C16.9523 12.5951 17.4166 11.0645 17.4166 9.4987C17.4166 8.45907 17.2118 7.42962 16.814 6.46912C16.4161 5.50863 15.833 4.6359 15.0978 3.90077C14.3627 3.16564 13.49 2.5825 12.5295 2.18465C11.569 1.7868 10.5396 1.58203 9.49992 1.58203ZM9.49992 15.832C8.24731 15.832 7.02282 15.4606 5.98131 14.7647C4.9398 14.0688 4.12804 13.0796 3.64869 11.9224C3.16933 10.7651 3.04391 9.49167 3.28828 8.26313C3.53266 7.03458 4.13585 5.90609 5.02158 5.02036C5.90731 4.13462 7.0358 3.53143 8.26435 3.28706C9.4929 3.04269 10.7663 3.16811 11.9236 3.64746C13.0808 4.12682 14.07 4.93858 14.7659 5.98009C15.4618 7.0216 15.8333 8.24608 15.8333 9.4987C15.8333 11.1784 15.166 12.7893 13.9783 13.977C12.7905 15.1648 11.1796 15.832 9.49992 15.832Z" fill="#17983B"/>
</g>
</svg>
