<svg width="25" height="24" viewBox="0 0 25 24" fill="none" xmlns="http://www.w3.org/2000/svg">
<g id="Media / Icon">
<path id="Vector" d="M17.4999 9.1697C17.3126 8.98345 17.0591 8.87891 16.7949 8.87891C16.5308 8.87891 16.2773 8.98345 16.0899 9.1697L12.4999 12.7097L8.95995 9.1697C8.77259 8.98345 8.51913 8.87891 8.25495 8.87891C7.99076 8.87891 7.73731 8.98345 7.54995 9.1697C7.45622 9.26266 7.38183 9.37326 7.33106 9.49512C7.28029 9.61698 7.25415 9.74769 7.25415 9.8797C7.25415 10.0117 7.28029 10.1424 7.33106 10.2643C7.38183 10.3861 7.45622 10.4967 7.54995 10.5897L11.7899 14.8297C11.8829 14.9234 11.9935 14.9978 12.1154 15.0486C12.2372 15.0994 12.3679 15.1255 12.4999 15.1255C12.632 15.1255 12.7627 15.0994 12.8845 15.0486C13.0064 14.9978 13.117 14.9234 13.2099 14.8297L17.4999 10.5897C17.5937 10.4967 17.6681 10.3861 17.7188 10.2643C17.7696 10.1424 17.7957 10.0117 17.7957 9.8797C17.7957 9.74769 17.7696 9.61698 17.7188 9.49512C17.6681 9.37326 17.5937 9.26266 17.4999 9.1697Z" fill="#11387C"/>
</g>
</svg>
