<svg width="17" height="18" viewBox="0 0 17 18" fill="none" xmlns="http://www.w3.org/2000/svg">
<g id="3844437_hamburger_list_menu_more_navigation_icon 1">
<path id="XMLID_352_" d="M15.3513 9.08994C15.3513 9.67433 14.877 10.1486 14.2926 10.1486H5.82309C5.2387 10.1486 4.7644 9.67433 4.7644 9.08994C4.7644 8.50554 5.2387 8.03125 5.82309 8.03125H14.2926C14.877 8.03125 15.3513 8.50554 15.3513 9.08994Z" fill="black"/>
<path id="XMLID_354_" d="M15.3513 3.79697C15.3513 4.38136 14.877 4.85565 14.2926 4.85565H5.82309C5.2387 4.85565 4.7644 4.38136 4.7644 3.79697C4.7644 3.21257 5.2387 2.73828 5.82309 2.73828H14.2926C14.877 2.73828 15.3513 3.21257 15.3513 3.79697Z" fill="black"/>
<path id="XMLID_356_" d="M15.3513 14.3829C15.3513 14.9673 14.877 15.4416 14.2926 15.4416H5.82309C5.2387 15.4416 4.7644 14.9673 4.7644 14.3829C4.7644 13.7985 5.2387 13.3242 5.82309 13.3242H14.2926C14.877 13.3242 15.3513 13.7985 15.3513 14.3829Z" fill="black"/>
<path id="XMLID_358_" d="M1.58838 3.79697C1.58838 4.38083 2.0632 4.85565 2.64706 4.85565C3.23093 4.85565 3.70575 4.38083 3.70575 3.79697C3.70575 3.2131 3.23093 2.73828 2.64706 2.73828C2.0632 2.73828 1.58838 3.2131 1.58838 3.79697Z" fill="black"/>
<path id="XMLID_360_" d="M1.58838 9.08994C1.58838 9.6738 2.0632 10.1486 2.64706 10.1486C3.23093 10.1486 3.70575 9.6738 3.70575 9.08994C3.70575 8.50607 3.23093 8.03125 2.64706 8.03125C2.0632 8.03125 1.58838 8.50607 1.58838 9.08994Z" fill="black"/>
<path id="XMLID_362_" d="M1.58838 14.3829C1.58838 14.9668 2.0632 15.4416 2.64706 15.4416C3.23093 15.4416 3.70575 14.9668 3.70575 14.3829C3.70575 13.799 3.23093 13.3242 2.64706 13.3242C2.0632 13.3242 1.58838 13.799 1.58838 14.3829Z" fill="black"/>
</g>
</svg>
