<svg width="20" height="20" viewBox="0 0 20 20" fill="none" xmlns="http://www.w3.org/2000/svg">
<path id="Vector" d="M9.98101 0.0117188C8.04148 0.0154038 6.14489 0.58303 4.52223 1.64546C2.89958 2.70788 1.6209 4.21926 0.841947 5.99549C0.0629925 7.77172 -0.182618 9.73614 0.135032 11.6495C0.452682 13.5628 1.31988 15.3425 2.63101 16.7717C3.56743 17.7868 4.70395 18.5969 5.96894 19.1509C7.23394 19.705 8.59999 19.991 9.98101 19.991C11.362 19.991 12.7281 19.705 13.9931 19.1509C15.2581 18.5969 16.3946 17.7868 17.331 16.7717C18.6421 15.3425 19.5093 13.5628 19.827 11.6495C20.1446 9.73614 19.899 7.77172 19.1201 5.99549C18.3411 4.21926 17.0624 2.70788 15.4398 1.64546C13.8171 0.58303 11.9205 0.0154038 9.98101 0.0117188ZM9.98101 18.0117C7.90947 18.0086 5.91992 17.202 4.43101 15.7617C4.88305 14.6613 5.65204 13.72 6.64026 13.0576C7.62848 12.3952 8.79132 12.0415 9.98101 12.0415C11.1707 12.0415 12.3335 12.3952 13.3218 13.0576C14.31 13.72 15.079 14.6613 15.531 15.7617C14.0421 17.202 12.0525 18.0086 9.98101 18.0117ZM7.98101 8.01172C7.98101 7.61616 8.0983 7.22948 8.31807 6.90058C8.53783 6.57168 8.85019 6.31533 9.21564 6.16396C9.58109 6.01258 9.98322 5.97298 10.3712 6.05015C10.7591 6.12732 11.1155 6.3178 11.3952 6.59751C11.6749 6.87721 11.8654 7.23358 11.9426 7.62154C12.0197 8.0095 11.9801 8.41163 11.8288 8.77709C11.6774 9.14254 11.421 9.4549 11.0921 9.67466C10.7632 9.89442 10.3766 10.0117 9.98101 10.0117C9.45057 10.0117 8.94186 9.801 8.56679 9.42593C8.19172 9.05086 7.98101 8.54215 7.98101 8.01172ZM16.891 14.0117C15.9975 12.4835 14.6224 11.2947 12.981 10.6317C13.4902 10.0544 13.8219 9.34238 13.9365 8.58116C14.051 7.81994 13.9435 7.04183 13.6268 6.34022C13.31 5.6386 12.7976 5.04328 12.1509 4.62568C11.5042 4.20809 10.7508 3.98597 9.98101 3.98597C9.21122 3.98597 8.45778 4.20809 7.8111 4.62568C7.16442 5.04328 6.65198 5.6386 6.33526 6.34022C6.01853 7.04183 5.91099 7.81994 6.02554 8.58116C6.14008 9.34238 6.47184 10.0544 6.98101 10.6317C5.3396 11.2947 3.96447 12.4835 3.07101 14.0117C2.35895 12.7988 1.98273 11.4182 1.98101 10.0117C1.98101 7.88999 2.82386 5.85516 4.32415 4.35486C5.82444 2.85457 7.85927 2.01172 9.98101 2.01172C12.1027 2.01172 14.1376 2.85457 15.6379 4.35486C17.1382 5.85516 17.981 7.88999 17.981 10.0117C17.9793 11.4182 17.6031 12.7988 16.891 14.0117Z" fill="#111827"/>
</svg>
