<svg width="19" height="19" viewBox="0 0 19 19" fill="none" xmlns="http://www.w3.org/2000/svg">
<g id="4172317_connect_consumer_follow_person_somebody_icon 1" clip-path="url(#clip0_408_41313)">
<rect width="19" height="19" fill="#F9FAFB"/>
<g id="Group">
<path id="Vector" d="M6.57114 7.35249C6.6131 7.35249 6.65427 7.34774 6.69623 7.34616C6.66258 7.10984 6.63883 6.87076 6.63883 6.62495C6.63883 4.60699 7.82633 2.87086 9.53791 2.06376C8.92635 1.06389 7.82831 0.394531 6.57114 0.394531C4.64977 0.394531 3.09216 1.95214 3.09216 3.87351C3.09216 5.79489 4.64937 7.35249 6.57114 7.35249Z" fill="#0039A3"/>
<path id="Vector_2" d="M11.6677 10.4908C13.802 10.4908 15.5322 8.76056 15.5322 6.62624C15.5322 4.49192 13.802 2.76172 11.6677 2.76172C9.53334 2.76172 7.80313 4.49192 7.80313 6.62624C7.80313 8.76056 9.53334 10.4908 11.6677 10.4908Z" fill="#0039A3"/>
<path id="Vector_3" d="M15.0386 10.4336C14.1401 11.2296 12.9617 11.7165 11.6669 11.7165C10.3781 11.7165 9.20485 11.234 8.3075 10.4451C5.96693 11.7224 4.36777 14.2847 4.36777 17.2396C4.36777 17.7051 4.40933 18.1591 4.48533 18.6012H18.8818C18.9582 18.1595 18.9997 17.7051 18.9997 17.2399C18.9997 14.2759 17.3915 11.707 15.0386 10.4336Z" fill="#0039A3"/>
<path id="Vector_4" d="M7.58496 9.57865C7.33638 9.22794 7.12856 8.84675 6.97458 8.43825C6.84158 8.44973 6.707 8.45725 6.57083 8.45725C5.41025 8.45725 4.35417 8.02302 3.54627 7.3125C1.43965 8.4624 0 10.7693 0 13.4297C0 13.8485 0.0376042 14.2578 0.105687 14.656H3.69273C4.21008 12.4599 5.64854 10.6209 7.58496 9.57865Z" fill="#0039A3"/>
</g>
</g>
<defs>
<clipPath id="clip0_408_41313">
<rect width="19" height="19" fill="white"/>
</clipPath>
</defs>
</svg>
