<svg width="29" height="28" viewBox="0 0 29 28" fill="none" xmlns="http://www.w3.org/2000/svg">
<g id="Media / Icon">
<path id="Vector" d="M23.7167 14.744C23.5297 14.5387 23.4265 14.2748 23.4265 14.0015C23.4265 13.7283 23.5297 13.4643 23.7167 13.259L25.21 11.639C25.3746 11.462 25.4768 11.2393 25.5019 11.0029C25.5271 10.7664 25.4739 10.5283 25.35 10.3228L23.0167 6.43028C22.8941 6.22499 22.7074 6.06227 22.4833 5.9653C22.2591 5.86834 22.0089 5.84208 21.7684 5.89028L19.575 6.31778C19.296 6.37339 19.0054 6.32857 18.7582 6.19178C18.5111 6.05499 18.3244 5.8357 18.2334 5.57528L17.5217 3.51653C17.4434 3.29308 17.2943 3.099 17.0954 2.96173C16.8966 2.82445 16.658 2.75092 16.4134 2.75153H11.7467C11.4923 2.73873 11.2405 2.80657 11.0299 2.94471C10.8192 3.08284 10.6612 3.28368 10.58 3.51653L9.92671 5.57528C9.83571 5.8357 9.64901 6.05499 9.40184 6.19178C9.15467 6.32857 8.86413 6.37339 8.58504 6.31778L6.33338 5.89028C6.10535 5.85921 5.87289 5.89391 5.66528 5.99C5.45767 6.08609 5.28419 6.23929 5.16671 6.43028L2.83338 10.3228C2.7064 10.526 2.6493 10.7628 2.67025 10.9992C2.69121 11.2356 2.78914 11.4595 2.95004 11.639L4.43171 13.259C4.61875 13.4643 4.7219 13.7283 4.7219 14.0015C4.7219 14.2748 4.61875 14.5387 4.43171 14.744L2.95004 16.364C2.78914 16.5435 2.69121 16.7675 2.67025 17.0039C2.6493 17.2403 2.7064 17.477 2.83338 17.6803L5.16671 21.5728C5.28932 21.7781 5.47601 21.9408 5.70017 22.0378C5.92432 22.1347 6.1745 22.161 6.41504 22.1128L8.60838 21.6853C8.88746 21.6297 9.178 21.6745 9.42517 21.8113C9.67234 21.9481 9.85904 22.1674 9.95004 22.4278L10.6617 24.4865C10.7429 24.7194 10.9009 24.9202 11.1115 25.0584C11.3222 25.1965 11.574 25.2643 11.8284 25.2515H16.495C16.7396 25.2521 16.9782 25.1786 17.1771 25.0413C17.376 24.9041 17.5251 24.71 17.6034 24.4865L18.315 22.4278C18.406 22.1674 18.5927 21.9481 18.8399 21.8113C19.0871 21.6745 19.3776 21.6297 19.6567 21.6853L21.85 22.1128C22.0906 22.161 22.3408 22.1347 22.5649 22.0378C22.7891 21.9408 22.9758 21.7781 23.0984 21.5728L25.4317 17.6803C25.5556 17.4748 25.6088 17.2367 25.5836 17.0002C25.5584 16.7637 25.4563 16.541 25.2917 16.364L23.7167 14.744ZM21.9784 16.2515L22.9117 17.264L21.4184 19.7615L20.0417 19.4915C19.2015 19.3259 18.3274 19.4635 17.5854 19.8783C16.8434 20.2931 16.2852 20.9561 16.0167 21.7415L15.5734 23.0015H12.5867L12.1667 21.719C11.8982 20.9336 11.34 20.2706 10.598 19.8558C9.85604 19.441 8.98197 19.3034 8.14171 19.469L6.76504 19.739L5.24838 17.2528L6.18171 16.2403C6.75566 15.6215 7.07296 14.8205 7.07296 13.9903C7.07296 13.1601 6.75566 12.3591 6.18171 11.7403L5.24838 10.7278L6.74171 8.25278L8.11838 8.52278C8.95863 8.68841 9.83271 8.55077 10.5747 8.136C11.3167 7.72124 11.8749 7.05821 12.1434 6.27278L12.5867 5.00153H15.5734L16.0167 6.28403C16.2852 7.06946 16.8434 7.73249 17.5854 8.14725C18.3274 8.56202 19.2015 8.69965 20.0417 8.53403L21.4184 8.26403L22.9117 10.7615L21.9784 11.774C21.4109 12.3914 21.0975 13.1878 21.0975 14.0128C21.0975 14.8378 21.4109 15.6342 21.9784 16.2515ZM14.08 9.50153C13.1571 9.50153 12.2548 9.76545 11.4874 10.2599C10.72 10.7544 10.1218 11.4572 9.7686 12.2795C9.4154 13.1017 9.32298 14.0065 9.50304 14.8794C9.68311 15.7524 10.1276 16.5542 10.7802 17.1835C11.4329 17.8128 12.2644 18.2414 13.1696 18.4151C14.0749 18.5887 15.0132 18.4996 15.8659 18.159C16.7186 17.8184 17.4475 17.2416 17.9602 16.5016C18.473 15.7616 18.7467 14.8915 18.7467 14.0015C18.7467 12.8081 18.255 11.6635 17.3799 10.8195C16.5047 9.97564 15.3177 9.50153 14.08 9.50153ZM14.08 16.2515C13.6186 16.2515 13.1674 16.1196 12.7837 15.8723C12.4 15.6251 12.1009 15.2737 11.9243 14.8626C11.7477 14.4514 11.7015 13.999 11.7915 13.5626C11.8816 13.1261 12.1038 12.7252 12.4301 12.4105C12.7564 12.0959 13.1722 11.8816 13.6248 11.7948C14.0775 11.7079 14.5466 11.7525 14.973 11.9228C15.3993 12.0931 15.7637 12.3815 16.0201 12.7515C16.2765 13.1215 16.4134 13.5565 16.4134 14.0015C16.4134 14.5983 16.1675 15.1706 15.73 15.5925C15.2924 16.0145 14.6989 16.2515 14.08 16.2515Z" fill="#111827"/>
</g>
</svg>
