<svg width="69" height="69" viewBox="0 0 69 69" fill="none" xmlns="http://www.w3.org/2000/svg">
<g id="Media / Icon">
<path id="Vector" d="M42.32 25.2712L29.9863 37.6338L25.2425 32.89C24.9848 32.589 24.6676 32.3446 24.3109 32.172C23.9542 31.9995 23.5657 31.9025 23.1698 31.8872C22.7738 31.8719 22.379 31.9386 22.0101 32.0832C21.6411 32.2277 21.3061 32.4469 21.0259 32.7271C20.7457 33.0073 20.5265 33.3424 20.3819 33.7113C20.2374 34.0803 20.1707 34.4751 20.186 34.871C20.2013 35.267 20.2982 35.6555 20.4708 36.0122C20.6434 36.3689 20.8878 36.686 21.1888 36.9438L27.945 43.7287C28.2137 43.9952 28.5322 44.206 28.8825 44.3491C29.2328 44.4922 29.6079 44.5647 29.9863 44.5625C30.7405 44.5593 31.4633 44.2599 31.9988 43.7287L46.3738 29.3538C46.6432 29.0865 46.8571 28.7685 47.0031 28.4182C47.149 28.0678 47.2242 27.692 47.2242 27.3125C47.2242 26.933 47.149 26.5572 47.0031 26.2068C46.8571 25.8565 46.6432 25.5385 46.3738 25.2712C45.8351 24.7358 45.1064 24.4352 44.3469 24.4352C43.5874 24.4352 42.8587 24.7358 42.32 25.2712ZM34.5 5.75C28.8138 5.75 23.2553 7.43616 18.5274 10.5952C13.7995 13.7543 10.1145 18.2445 7.93848 23.4979C5.76246 28.7512 5.19311 34.5319 6.30244 40.1088C7.41176 45.6858 10.1499 50.8086 14.1707 54.8293C18.1915 58.8501 23.3142 61.5883 28.8912 62.6976C34.4681 63.8069 40.2488 63.2376 45.5022 61.0615C50.7555 58.8855 55.2457 55.2006 58.4048 50.4726C61.5639 45.7447 63.25 40.1862 63.25 34.5C63.25 30.7245 62.5064 26.986 61.0616 23.4979C59.6167 20.0097 57.499 16.8404 54.8293 14.1707C52.1596 11.501 48.9903 9.38329 45.5022 7.93846C42.0141 6.49364 38.2755 5.75 34.5 5.75ZM34.5 57.5C29.951 57.5 25.5042 56.1511 21.7219 53.6238C17.9396 51.0965 14.9916 47.5044 13.2508 43.3017C11.51 39.099 11.0545 34.4745 11.942 30.0129C12.8294 25.5514 15.0199 21.4532 18.2366 18.2365C21.4532 15.0199 25.5514 12.8294 30.0129 11.9419C34.4745 11.0545 39.099 11.51 43.3017 13.2508C47.5044 14.9916 51.0965 17.9396 53.6238 21.7219C56.1511 25.5042 57.5 29.951 57.5 34.5C57.5 40.6 55.0768 46.4501 50.7635 50.7635C46.4501 55.0768 40.6 57.5 34.5 57.5Z" fill="#17983B"/>
</g>
</svg>
