<svg width="15" height="15" viewBox="0 0 15 15" fill="none" xmlns="http://www.w3.org/2000/svg">
<g id="2849799_multimedia_computer_pc_screen_monitor_icon 1">
<g id="1">
<path id="Vector" d="M12.0997 10.3447H2.84893C2.51411 10.3444 2.19308 10.2113 1.9563 9.97457C1.71952 9.73784 1.58633 9.41685 1.58594 9.08203V2.93877C1.58633 2.60392 1.71951 2.2829 1.95629 2.04613C2.19306 1.80936 2.51408 1.67617 2.84893 1.67578H12.0997C12.4345 1.67617 12.7555 1.80937 12.9922 2.04615C13.229 2.28293 13.3621 2.60395 13.3624 2.93877V9.08203C13.3621 9.41682 13.229 9.73781 12.9922 9.97455C12.7555 10.2113 12.4345 10.3444 12.0997 10.3447ZM2.84893 2.55469C2.74708 2.55477 2.64944 2.59526 2.57742 2.66727C2.50541 2.73928 2.46492 2.83693 2.46484 2.93877V9.08203C2.465 9.18382 2.50552 9.28139 2.57753 9.35334C2.64953 9.42529 2.74714 9.46574 2.84893 9.46582H12.0997C12.2014 9.46567 12.299 9.42518 12.3709 9.35324C12.4429 9.2813 12.4833 9.18377 12.4835 9.08203V2.93877C12.4834 2.83698 12.443 2.73938 12.371 2.66737C12.2991 2.59537 12.2015 2.55484 12.0997 2.55469H2.84893Z" fill="#11387C"/>
<path id="Vector_2" d="M9.49595 11.8818H5.45299C5.38183 11.8818 5.31175 11.8644 5.24879 11.8312C5.18582 11.7981 5.13184 11.7502 5.0915 11.6915C5.05115 11.6329 5.02565 11.5654 5.01717 11.4947C5.00869 11.4241 5.0175 11.3524 5.04283 11.2859L5.62877 9.74785C5.66044 9.6647 5.71662 9.59313 5.78985 9.54259C5.86309 9.49206 5.94994 9.46495 6.03892 9.46484H8.91002C8.999 9.46495 9.08585 9.49206 9.15909 9.54259C9.23232 9.59313 9.2885 9.6647 9.32017 9.74785L9.90611 11.2859C9.93144 11.3524 9.94025 11.4241 9.93177 11.4947C9.92329 11.5654 9.89779 11.6329 9.85744 11.6915C9.81709 11.7502 9.76312 11.7981 9.70015 11.8312C9.63719 11.8644 9.56711 11.8818 9.49595 11.8818ZM6.09078 11.0029H8.85816L8.60709 10.3438H6.34215L6.09078 11.0029Z" fill="#11387C"/>
<path id="Vector_3" d="M10.389 11.8828H4.55896C4.44241 11.8828 4.33063 11.8365 4.24822 11.7541C4.16581 11.6717 4.11951 11.5599 4.11951 11.4434C4.11951 11.3268 4.16581 11.215 4.24822 11.1326C4.33063 11.0502 4.44241 11.0039 4.55896 11.0039H10.389C10.5056 11.0039 10.6174 11.0502 10.6998 11.1326C10.7822 11.215 10.8285 11.3268 10.8285 11.4434C10.8285 11.5599 10.7822 11.6717 10.6998 11.7541C10.6174 11.8365 10.5056 11.8828 10.389 11.8828Z" fill="#11387C"/>
<path id="Vector_4" d="M12.9238 8.89453H2.02539C1.90884 8.89453 1.79706 8.84823 1.71465 8.76582C1.63224 8.6834 1.58594 8.57163 1.58594 8.45508C1.58594 8.33853 1.63224 8.22675 1.71465 8.14434C1.79706 8.06192 1.90884 8.01563 2.02539 8.01563H12.9238C13.0404 8.01562 13.1522 8.06192 13.2346 8.14434C13.317 8.22675 13.3633 8.33853 13.3633 8.45508C13.3633 8.57163 13.317 8.6834 13.2346 8.76582C13.1522 8.84823 13.0404 8.89453 12.9238 8.89453Z" fill="#11387C"/>
</g>
</g>
</svg>
