<svg width="15" height="15" viewBox="0 0 15 15" fill="none" xmlns="http://www.w3.org/2000/svg">
<g id="3671721_calendar_icon 2" clip-path="url(#clip0_408_43658)">
<path id="Vector" d="M0.749756 3C0.749756 2.175 1.42476 1.5 2.24976 1.5H12.7498C13.1476 1.5 13.5291 1.65804 13.8104 1.93934C14.0917 2.22064 14.2498 2.60218 14.2498 3V13.5C14.2498 13.8978 14.0917 14.2794 13.8104 14.5607C13.5291 14.842 13.1476 15 12.7498 15H2.24976C1.85193 15 1.4704 14.842 1.1891 14.5607C0.907791 14.2794 0.749756 13.8978 0.749756 13.5V3ZM2.24976 4.5V13.5H12.7498V4.5H2.24976ZM3.74976 0H5.24976V1.5H3.74976V0ZM9.74975 0H11.2498V1.5H9.74975V0ZM3.74976 6.75H5.24976V8.25H3.74976V6.75ZM3.74976 9.75H5.24976V11.25H3.74976V9.75ZM6.74976 6.75H8.24976V8.25H6.74976V6.75ZM6.74976 9.75H8.24976V11.25H6.74976V9.75ZM9.74975 6.75H11.2498V8.25H9.74975V6.75ZM9.74975 9.75H11.2498V11.25H9.74975V9.75Z" fill="white"/>
</g>
<defs>
<clipPath id="clip0_408_43658">
<rect width="15" height="15" fill="white"/>
</clipPath>
</defs>
</svg>
